<svg class="dockicon" viewBox="0 0 79 78" fill="none" xmlns="http://www.w3.org/2000/svg">
    <path d="M0 2C0 0.895431 0.895431 0 2 0H19.1111C20.2157 0 21.1111 0.895431 21.1111 2V18C21.1111 19.1046 20.2157 20 19.1111 20H2C0.895432 20 0 19.1046 0 18V2Z" fill="#D9D9D9"/>
    <path d="M0 31C0 29.8954 0.895431 29 2 29H19.1111C20.2157 29 21.1111 29.8954 21.1111 31V47C21.1111 48.1046 20.2157 49 19.1111 49H2C0.895432 49 0 48.1046 0 47V31Z" class="fill"/>
    <path d="M29 31C29 29.8954 29.8954 29 31 29H48.1111C49.2157 29 50.1111 29.8954 50.1111 31V47C50.1111 48.1046 49.2157 49 48.1111 49H31C29.8954 49 29 48.1046 29 47V31Z" class="fill"/>
    <path d="M57 31C57 29.8954 57.8954 29 59 29H76.1111C77.2157 29 78.1111 29.8954 78.1111 31V47C78.1111 48.1046 77.2157 49 76.1111 49H59C57.8954 49 57 48.1046 57 47V31Z" class="fill"/>
    <path d="M0 60C0 58.8954 0.895431 58 2 58H19.1111C20.2157 58 21.1111 58.8954 21.1111 60V76C21.1111 77.1046 20.2157 78 19.1111 78H2C0.895432 78 0 77.1046 0 76V60Z" class="fill"/>
    <path d="M29 60C29 58.8954 29.8954 58 31 58H48.1111C49.2157 58 50.1111 58.8954 50.1111 60V76C50.1111 77.1046 49.2157 78 48.1111 78H31C29.8954 78 29 77.1046 29 76V60Z" class="fill"/>
    <path d="M57 60C57 58.8954 57.8954 58 59 58H76.1111C77.2157 58 78.1111 58.8954 78.1111 60V76C78.1111 77.1046 77.2157 78 76.1111 78H59C57.8954 78 57 77.1046 57 76V60Z" class="fill"/>
    <path d="M29 2C29 0.895431 29.8954 0 31 0H48.1111C49.2157 0 50.1111 0.895431 50.1111 2V18C50.1111 19.1046 49.2157 20 48.1111 20H31C29.8954 20 29 19.1046 29 18V2Z" class="fill"/>
    <path d="M57 2C57 0.895431 57.8954 0 59 0H76.1111C77.2157 0 78.1111 0.895431 78.1111 2V18C78.1111 19.1046 77.2157 20 76.1111 20H59C57.8954 20 57 19.1046 57 18V2Z" class="fill"/>
</svg>