<svg class="appicon" width="80" height="80" viewBox="0 0 80 80" fill="none" xmlns="http://www.w3.org/2000/svg">
    <g filter="url(#filter0_i_1390_3)">
        <path class="fill" fill-rule="evenodd" clip-rule="evenodd" d="M16.2426 12.1818C13.6688 13.2848 12 15.8156 12 18.6158V47.2032C12 50.262 13.2736 53.1826 15.515 55.264L33.8759 72.3134C37.3291 75.5199 42.6709 75.5199 46.1241 72.3134L64.485 55.264C66.7264 53.1826 68 50.262 68 47.2032V18.6158C68 15.8156 66.3312 13.2848 63.7574 12.1818L60.8777 10.9476C47.5456 5.23385 32.4544 5.23385 19.1223 10.9476L16.2426 12.1818ZM31.591 24.409C30.7123 23.5303 29.2877 23.5303 28.409 24.409C27.5303 25.2877 27.5303 26.7123 28.409 27.591L37.318 36.5L28.409 45.409C27.5303 46.2877 27.5303 47.7123 28.409 48.591C29.2877 49.4697 30.7123 49.4697 31.591 48.591L40.5 39.682L49.409 48.591C50.2877 49.4697 51.7123 49.4697 52.591 48.591C53.4697 47.7123 53.4697 46.2877 52.591 45.409L43.682 36.5L52.591 27.591C53.4697 26.7123 53.4697 25.2877 52.591 24.409C51.7123 23.5303 50.2877 23.5303 49.409 24.409L40.5 33.318L31.591 24.409Z" />
    </g>
    <defs>
        <filter id="filter0_i_1390_3" x="11" y="5.66228" width="57" height="69.0559" filterUnits="userSpaceOnUse"
            color-interpolation-filters="sRGB">
            <feFlood flood-opacity="0" result="BackgroundImageFix" />
            <feBlend mode="normal" in="SourceGraphic" in2="BackgroundImageFix" result="shape" />
            <feColorMatrix in="SourceAlpha" type="matrix" values="0 0 0 0 0 0 0 0 0 0 0 0 0 0 0 0 0 0 127 0" result="hardAlpha" />
            <feOffset dx="-1" dy="-1" />
            <feGaussianBlur stdDeviation="2" />
            <feComposite in2="hardAlpha" operator="arithmetic" k2="-1" k3="1" />
            <feColorMatrix type="matrix" values="0 0 0 0 0 0 0 0 0 0 0 0 0 0 0 0 0 0 0.25 0" />
            <feBlend mode="normal" in2="shape" result="effect1_innerShadow_1390_3" />
        </filter>
    </defs>
</svg>