<svg width="80" height="80" viewBox="0 0 80 80" fill="none" xmlns="http://www.w3.org/2000/svg">
    <path class="fill" fill-rule="evenodd" clip-rule="evenodd" d="M17 16C17 16.5523 16.5523 17 16 17H5.5C2.46243 17 0 19.4624 0 22.5C0 25.5376 2.46243 28 5.5 28H16C16.5523 28 17 28.4477 17 29V56C17 59.3137 19.6863 62 23 62H51C51.5523 62 52 62.4477 52 63V74.5C52 77.5376 54.4624 80 57.5 80C60.5376 80 63 77.5376 63 74.5V64C63 63.4477 63.4477 63 64 63H74.5C77.5376 63 80 60.5376 80 57.5C80 54.4624 77.5376 52 74.5 52H63C62.4477 52 62 51.5523 62 51V23C62 19.6863 59.3137 17 56 17H29C28.4477 17 28 16.5523 28 16V5.5C28 2.46243 25.5376 0 22.5 0C19.4624 0 17 2.46243 17 5.5V16ZM32 28C29.7909 28 28 29.7909 28 32V48C28 50.2091 29.7909 52 32 52H48C50.2091 52 52 50.2091 52 48V32C52 29.7909 50.2091 28 48 28H32Z"/>
</svg>