<svg width="80" height="80" viewBox="0 0 80 80" fill="none" xmlns="http://www.w3.org/2000/svg">
    <g filter="url(#filter0_i_2_2)">
        <path fill-rule="evenodd" clip-rule="evenodd" d="M1.82843 37.3553C0.266336 38.9174 0.266336 41.4501 1.82843 43.0122L15.2635 56.4472C28.9318 70.1156 51.0926 70.1156 64.7609 56.4472L78.196 43.0122C79.7581 41.4501 79.7581 38.9174 78.196 37.3553L64.7609 23.9203C51.0926 10.2519 28.9318 10.2519 15.2635 23.9203L1.82843 37.3553ZM40 54C47.732 54 54 47.732 54 40C54 32.268 47.732 26 40 26C32.268 26 26 32.268 26 40C26 47.732 32.268 54 40 54Z" fill="#31B04D"/>
    </g>
    <defs>
        <filter id="filter0_i_2_2" x="0.65686" y="13.669" width="78.7107" height="57.0294" filterUnits="userSpaceOnUse" color-interpolation-filters="sRGB">
            <feFlood flood-opacity="0" result="BackgroundImageFix"/>
            <feBlend mode="normal" in="SourceGraphic" in2="BackgroundImageFix" result="shape"/>
            <feColorMatrix in="SourceAlpha" type="matrix" values="0 0 0 0 0 0 0 0 0 0 0 0 0 0 0 0 0 0 127 0" result="hardAlpha"/>
            <feOffset dy="4"/>
            <feGaussianBlur stdDeviation="4"/>
            <feComposite in2="hardAlpha" operator="arithmetic" k2="-1" k3="1"/>
            <feColorMatrix type="matrix" values="0 0 0 0 1 0 0 0 0 1 0 0 0 0 1 0 0 0 0.3 0"/>
            <feBlend mode="normal" in2="shape" result="effect1_innerShadow_2_2"/>
        </filter>
    </defs>
</svg>