<svg width="80" height="80" viewBox="0 0 80 80" fill="none" xmlns="http://www.w3.org/2000/svg">
<path d="M38.8396 47.5028C38.3151 47.5028 37.8254 47.2405 37.5349 46.8038V46.8038C37.1864 46.2801 37.0025 45.6629 37.0077 45.0338C37.0181 43.7668 37.0438 43.351 37.3835 42.3409C37.7973 41.1103 38.3854 40.1139 39.1477 39.3516C39.91 38.5893 40.8248 37.8868 41.892 37.2443C42.5346 36.8523 43.1117 36.3894 43.6236 35.8558C44.1354 35.3113 44.5384 34.6851 44.8324 33.9773C45.1373 33.2694 45.2898 32.4853 45.2898 31.625C45.2898 30.5578 45.0393 29.6321 44.5384 28.848C44.0374 28.0639 43.3677 27.4595 42.5291 27.0348C41.6906 26.6101 40.7595 26.3977 39.7358 26.3977C38.8428 26.3977 37.9825 26.5829 37.1548 26.9531C36.3272 27.3234 35.6357 27.906 35.0803 28.701C34.8187 29.0754 34.6091 29.504 34.4514 29.9871C34.1249 30.9872 33.2995 31.821 32.2475 31.821H32.0963C30.9549 31.821 30.0189 30.857 30.2878 29.7476C30.528 28.7569 30.9112 27.8635 31.4375 27.0675C32.3196 25.7498 33.4794 24.7424 34.9169 24.0455C36.3653 23.3485 37.9716 23 39.7358 23C41.6525 23 43.3187 23.3812 44.7344 24.1435C46.161 24.9058 47.2609 25.9512 48.0341 27.2798C48.8182 28.6084 49.2102 30.1222 49.2102 31.821C49.2102 33.0189 49.0251 34.1025 48.6548 35.0717C48.2955 36.041 47.7727 36.9067 47.0866 37.669C46.4115 38.4313 45.5947 39.1065 44.6364 39.6946C43.678 40.2936 42.9103 40.9252 42.3331 41.5895C41.7559 42.2429 41.3366 43.0215 41.0753 43.9254C40.8883 44.572 40.888 45.1759 40.8951 45.9616C40.9007 46.5909 40.5164 47.1532 39.9328 47.3889V47.3889C39.7464 47.4641 39.5472 47.5028 39.3462 47.5028H38.8396ZM38.821 57.1733C38.0152 57.1733 37.3236 56.8847 36.7464 56.3075C36.1693 55.7304 35.8807 55.0388 35.8807 54.233C35.8807 53.4271 36.1693 52.7356 36.7464 52.1584C37.3236 51.5812 38.0152 51.2926 38.821 51.2926C39.6269 51.2926 40.3184 51.5812 40.8956 52.1584C41.4728 52.7356 41.7614 53.4271 41.7614 54.233C41.7614 54.7666 41.6252 55.2566 41.353 55.7031C41.0916 56.1496 40.7377 56.509 40.2912 56.7812C39.8556 57.0426 39.3655 57.1733 38.821 57.1733Z" fill="#43B65C"/>
</svg>
