<svg width="6" height="10" viewBox="0 0 6 10" fill="none" xmlns="http://www.w3.org/2000/svg">
    <path d="M2.23295 6.54545V6.49432C2.23864 5.9517 2.29545 5.51989 2.40341 5.19886C2.51136 4.87784 2.66477 4.6179 2.86364 4.41903C3.0625 4.22017 3.30114 4.03693 3.57955 3.86932C3.74716 3.76705 3.89773 3.64631 4.03125 3.5071C4.16477 3.36506 4.26989 3.2017 4.34659 3.01705C4.42614 2.83239 4.46591 2.62784 4.46591 2.40341C4.46591 2.125 4.40057 1.88352 4.26989 1.67898C4.1392 1.47443 3.96449 1.31676 3.74574 1.20597C3.52699 1.09517 3.28409 1.03977 3.01705 1.03977C2.78409 1.03977 2.55966 1.08807 2.34375 1.18466C2.12784 1.28125 1.94744 1.43324 1.80256 1.64062C1.65767 1.84801 1.57386 2.11932 1.55114 2.45455H0.477273C0.5 1.97159 0.625 1.55824 0.852273 1.21449C1.08239 0.870739 1.38494 0.607954 1.75994 0.426136C2.13778 0.244318 2.55682 0.153409 3.01705 0.153409C3.51705 0.153409 3.9517 0.252841 4.32102 0.451704C4.69318 0.650568 4.98011 0.923295 5.18182 1.26989C5.38636 1.61648 5.48864 2.01136 5.48864 2.45455C5.48864 2.76705 5.44034 3.04972 5.34375 3.30256C5.25 3.5554 5.11364 3.78125 4.93466 3.98011C4.75852 4.17898 4.54545 4.35511 4.29545 4.50852C4.04545 4.66477 3.84517 4.82955 3.6946 5.00284C3.54403 5.1733 3.43466 5.37642 3.36648 5.61222C3.2983 5.84801 3.26136 6.14205 3.25568 6.49432V6.54545H2.23295ZM2.77841 9.06818C2.56818 9.06818 2.38778 8.9929 2.23722 8.84233C2.08665 8.69176 2.01136 8.51136 2.01136 8.30114C2.01136 8.09091 2.08665 7.91051 2.23722 7.75994C2.38778 7.60937 2.56818 7.53409 2.77841 7.53409C2.98864 7.53409 3.16903 7.60937 3.3196 7.75994C3.47017 7.91051 3.54545 8.09091 3.54545 8.30114C3.54545 8.44034 3.50994 8.56818 3.43892 8.68466C3.37074 8.80114 3.27841 8.89489 3.16193 8.96591C3.0483 9.03409 2.92045 9.06818 2.77841 9.06818Z" fill="url(#paint0_linear_62_2)"/>
    <defs>
        <linearGradient id="paint0_linear_62_2" x1="-7.4661e-08" y1="2.95025e-08" x2="3.8864" y2="9.83519" gradientUnits="userSpaceOnUse">
            <stop class="stopLIGHT" stop-color="#68FF89"/>
            <stop class="stopDARK" offset="1" stop-color="#105B21"/>
        </linearGradient>
    </defs>
</svg>