<svg width="80" height="80" viewBox="0 0 80 80" fill="none" xmlns="http://www.w3.org/2000/svg">
<path fill-rule="evenodd" clip-rule="evenodd" d="M75.6638 42.68C77.6638 41.5253 77.6638 38.6385 75.6638 37.4838L12.541 1.03983C10.541 -0.114871 8.04095 1.32851 8.04095 3.63791V76.5259C8.04095 78.8353 10.541 80.2787 12.541 79.124L75.6638 42.68ZM32.2603 32.6776C32.2603 33.2299 31.8126 33.6776 31.2603 33.6776H26.1143C25.562 33.6776 25.1143 34.1253 25.1143 34.6776V53.1679C25.1143 53.7202 24.6666 54.1679 24.1143 54.1679H19.2344C18.6821 54.1679 18.2344 53.7202 18.2344 53.1679V34.6776C18.2344 34.1253 17.7867 33.6776 17.2344 33.6776H12.0884C11.5361 33.6776 11.0884 33.2299 11.0884 32.6776V28.215C11.0884 27.6627 11.5361 27.215 12.0884 27.215H31.2603C31.8126 27.215 32.2603 27.6627 32.2603 28.215V32.6776ZM45.7145 27.253C50.846 27.253 54.609 30.3322 54.457 35.4643C54.4224 36.5686 53.7616 38.4559 52.1899 39.5341C51.9874 39.673 51.9905 39.9955 52.2015 40.1212C55.4121 42.0347 55.8086 45.2589 55.4832 47.2111C54.7991 51.5448 51.8723 54.1679 45.9046 54.1679H35.9195C35.3672 54.1679 34.9195 53.7202 34.9195 53.1679V28.253C34.9195 27.7007 35.3672 27.253 35.9195 27.253H45.7145ZM41.7614 36.7833C41.7614 37.3355 42.2091 37.7833 42.7614 37.7833H45.7145C49.0214 37.7833 49.1355 32.9933 45.7145 32.9933H42.7614C42.2091 32.9933 41.7614 33.441 41.7614 33.9933V36.7833ZM41.7614 47.1995C41.7614 47.7518 42.2091 48.1995 42.7614 48.1995H45.7145C49.8197 48.1995 49.7436 42.6872 45.7145 42.6872H42.7614C42.2091 42.6872 41.7614 43.135 41.7614 43.6873V47.1995Z" fill="#47CA64"/>
</svg>
