<svg width="40.1" height="42.9" inkscape:version="1.0.2 (e86c870879, 2021-01-15)" sodipodi:docname="ruffle.svg" version="1.1" viewBox="0 0 40.1 42.9" xmlns="http://www.w3.org/2000/svg" xmlns:cc="http://creativecommons.org/ns#" xmlns:dc="http://purl.org/dc/elements/1.1/" xmlns:inkscape="http://www.inkscape.org/namespaces/inkscape" xmlns:rdf="http://www.w3.org/1999/02/22-rdf-syntax-ns#" xmlns:sodipodi="http://sodipodi.sourceforge.net/DTD/sodipodi-0.dtd">
 <metadata>
  <rdf:RDF>
   <cc:Work rdf:about="">
    <dc:format>image/svg+xml</dc:format>
    <dc:type rdf:resource="http://purl.org/dc/dcmitype/StillImage"/>
    <dc:title/>
   </cc:Work>
  </rdf:RDF>
 </metadata>
 <sodipodi:namedview bordercolor="#666666" borderopacity="1" fit-margin-bottom="0" fit-margin-left="0" fit-margin-right="0" fit-margin-top="0" gridtolerance="10" guidetolerance="10" inkscape:current-layer="g1080" inkscape:cx="121.29662" inkscape:cy="44.453228" inkscape:pageopacity="0" inkscape:pageshadow="2" inkscape:window-height="1014" inkscape:window-maximized="1" inkscape:window-width="1920" inkscape:window-x="0" inkscape:window-y="36" inkscape:zoom="3.8780488" objecttolerance="10" pagecolor="#ffffff" showgrid="false"/>
 <g transform="translate(-3.74 -21.2)" inkscape:groupmode="layer" inkscape:label="Image">
  <g transform="matrix(.665 0 0 .64 -3.36 -.174)">
   <g transform="matrix(.944 0 0 .962 2.59 3.76)">
    <path class="fill" d="m13.7 80.3c1.53-10.9 2.79-20.3 2.81-21 .0942-3.01 4.01-5.25 9.29-5.32 4.57-.0589 4.95-.21 2.96-1.17-1.75-.843-2.18-1.71-1.81-3.68.263-1.42.763-4.74 1.11-7.39.528-4 1.17-5.13 3.81-6.75 2.8-1.71 5.11-1.94 19.3-1.94 21.4-.005 21.1-.211 19.4 13.6-1.93 15.7-1.01 14.4-10.2 14.4-7.1 0-7.91-.188-7.46-1.75.272-.962.798-4.14 1.17-7.05l.673-5.3-11.7.606-1.13 6.93c-1.22 7.49-3.55 10.6-7.97 10.6-1.86 0-2.46.668-2.91 3.25-.622 3.59-4.53 30.6-4.53 31.3 0 .245-3.52.445-7.81.445h-7.81z"/>
    <path class="fill" d="m32.4 65.6-2.51-12.2 7 5.89 3.86.466-1.38 2.72-2.3 2.25-1.69.594z"/>
   </g>
  </g>
 </g>
</svg>