<svg width="80" height="80" viewBox="0 0 80 80" fill="none" xmlns="http://www.w3.org/2000/svg">
    <path class="fill" fill-rule="evenodd" clip-rule="evenodd" d="M37.5 70.5C36.6716 70.5 36 69.8284 36 69V65.1042C32.7614 64.5276 29.7344 63.3396 27.0425 61.6639L22.6212 66.1768C22.0425 66.7696 21.0928 66.7811 20.5 66.2024L16.2064 62.0113C15.6136 61.4327 15.6021 60.483 16.1808 59.8902L20.3521 55.6325C17.889 52.4624 16.1575 48.6955 15.4112 44.5854H11C10.1716 44.5854 9.5 43.9138 9.5 43.0854V37.0854C9.5 36.2569 10.1716 35.5854 11 35.5854H15.3808C15.962 32.255 17.1894 29.1467 18.929 26.3944L15.195 22.6069C14.6038 22.0266 14.5951 21.0769 15.1754 20.4857L19.3788 16.2041C19.9591 15.613 20.9088 15.6042 21.5 16.1846L25.0086 19.7433C28.1712 17.3211 31.9175 15.6227 36 14.8958V11C36 10.1716 36.6716 9.5 37.5 9.5H43.5C44.3284 9.5 45 10.1716 45 11V14.8958C48.9649 15.6018 52.6128 17.224 55.7167 19.5358L59 16.1846C59.5787 15.5917 60.5283 15.5803 61.1212 16.1589L65.4148 20.35C66.0076 20.9287 66.0191 21.8784 65.4404 22.4712L61.8833 26.1019C63.7224 28.9257 65.0173 32.1365 65.6193 35.5854H70C70.8284 35.5854 71.5 36.2569 71.5 37.0854V43.0854C71.5 43.9138 70.8284 44.5854 70 44.5854H65.5889C64.8312 48.7583 63.0579 52.5774 60.5345 55.7773L64.5 59.7996C65.0912 60.38 65.0999 61.3297 64.5196 61.9208L60.3162 66.2024C59.7359 66.7936 58.7862 66.8023 58.195 66.222L53.7982 61.7622C51.1464 63.3861 48.1748 64.5389 45 65.1042V69C45 69.8284 44.3284 70.5 43.5 70.5H37.5ZM41 56C49.8366 56 57 48.8366 57 40C57 31.1634 49.8366 24 41 24C32.1634 24 25 31.1634 25 40C25 48.8366 32.1634 56 41 56Z"/>
</svg>