<svg star2 width="39" height="35" viewBox="0 0 39 35" fill="none" xmlns="http://www.w3.org/2000/svg">
    <path d="M17.6588 1.34057C18.3482 -0.284754 20.6518 -0.284753 21.3412 1.34057L24.2409 8.1764C25.261 10.5813 27.2756 12.4242 29.7616 13.2267L37.1037 15.5967C38.9512 16.1931 38.9512 18.8069 37.1037 19.4033L29.7616 21.7733C27.2756 22.5758 25.261 24.4187 24.2409 26.8236L21.3412 33.6594C20.6518 35.2848 18.3482 35.2848 17.6588 33.6594L14.7591 26.8236C13.739 24.4187 11.7244 22.5758 9.23842 21.7733L1.89631 19.4033C0.0488074 18.8069 0.0488038 16.1931 1.8963 15.5967L9.23842 13.2267C11.7244 12.4242 13.739 10.5813 14.7591 8.1764L17.6588 1.34057Z" fill="#47CA64"/>
</svg>