<svg star1 width="54" height="52" viewBox="0 0 54 52" fill="none" xmlns="http://www.w3.org/2000/svg">
    <path d="M26.0262 1.16721C26.2669 0.137266 27.7331 0.137269 27.9738 1.16721L31.1255 14.6549C31.263 15.2435 31.8873 15.5765 32.4527 15.3628L41.3219 12.0118C42.2074 11.6773 43.019 12.6461 42.5343 13.4593L38.2976 20.5683C37.948 21.1549 38.2761 21.9115 38.9432 22.0572L52.5257 25.023C53.5746 25.2521 53.5746 26.7479 52.5257 26.977L38.89 29.9544C38.2385 30.0967 37.9061 30.8247 38.2253 31.4101L42.5622 39.3632C43.0224 40.2072 42.1428 41.1511 41.2685 40.7514L32.4966 36.7419C31.922 36.4792 31.2509 36.8086 31.1071 37.4238L27.9738 50.8328C27.7331 51.8627 26.2669 51.8627 26.0262 50.8328L22.8784 37.3615C22.7395 36.7672 22.1053 36.4349 21.5376 36.6589L11.1514 40.7566C10.2243 41.1224 9.39123 40.0552 9.97108 39.2446L15.5299 31.4739C15.9479 30.8896 15.6317 30.0683 14.9299 29.9151L1.47428 26.977C0.425383 26.748 0.425377 25.2521 1.47427 25.023L14.8588 22.1004C15.5786 21.9433 15.8871 21.088 15.4333 20.5075L10.0197 13.5834C9.41161 12.8055 10.1789 11.7106 11.1176 12.0167L21.579 15.4284C22.1361 15.6101 22.7294 15.2759 22.8628 14.7052L26.0262 1.16721Z" fill="#47CA64"/>
</svg>