<svg width="20" height="21" viewBox="0 0 20 21" fill="none" xmlns="http://www.w3.org/2000/svg">
<path d="M9.09478 0.928375C9.45471 0.161619 10.5453 0.16162 10.9052 0.928376L13.1725 5.75831C13.3141 6.05989 13.5965 6.27116 13.9258 6.32177L19.0777 7.1136C19.882 7.2372 20.2098 8.2184 19.6413 8.8006L15.8527 12.6808C15.6309 12.908 15.5302 13.227 15.5813 13.5404L16.4664 18.9672C16.6008 19.7911 15.7261 20.4073 14.9956 20.0033L10.4839 17.5084C10.1828 17.3419 9.8172 17.3419 9.51608 17.5084L5.00445 20.0033C4.27389 20.4073 3.39918 19.7911 3.53357 18.9672L4.41872 13.5404C4.46983 13.227 4.36909 12.908 4.14727 12.6808L0.358696 8.8006C-0.209756 8.2184 0.118038 7.23721 0.922286 7.1136L6.07418 6.32177C6.40347 6.27116 6.68592 6.05989 6.82749 5.75831L9.09478 0.928375Z" fill="#A5A5A5"/>
</svg>
