<svg width="80" height="80" viewBox="0 0 80 80" fill="none" xmlns="http://www.w3.org/2000/svg">
<rect x="41.6892" y="18.5555" width="15.5556" height="12.4445" rx="1.5" fill="#47CA64"/>
<rect x="49.4663" y="37.2223" width="15.5556" height="12.4445" rx="1.5" fill="#47CA64"/>
<rect x="47.9109" y="60.5555" width="15.5556" height="12.4445" rx="1.5" fill="#47CA64"/>
<rect x="14" y="3" width="18.6667" height="6.22223" rx="3" fill="#47CA64"/>
<path d="M15.2448 9.22226H30.8003H27.1337C26.5814 9.22226 26.1337 9.66997 26.1337 10.2223V46.5556H23.43C21.7731 46.5556 20.43 45.2125 20.43 43.5556V10.2223C20.43 9.66997 19.9823 9.22226 19.43 9.22226H15.2448Z" fill="#47CA64"/>
<path d="M26.1335 17V21.1852C26.1335 21.7375 26.5812 22.1852 27.1335 22.1852H40.6891C41.2413 22.1852 41.689 21.7375 41.689 21.1852V19.5926V29.963V28.3704C41.689 27.8181 41.2413 27.3704 40.689 27.3704H27.1335C26.5812 27.3704 26.1335 27.8181 26.1335 28.3704V32.5556V17Z" fill="#47CA64"/>
<path d="M26.1335 34.1111V39.3333C26.1335 39.8856 26.5812 40.3333 27.1335 40.3333H48.4668C49.0191 40.3333 49.4668 39.8856 49.4668 39.3333V37.2222V49.6666V47.5555C49.4668 47.0033 49.0191 46.5555 48.4668 46.5555H26.1335V34.1111Z" fill="#47CA64"/>
<path d="M29.2443 46.5556H40.1332H38.411C37.8587 46.5556 37.411 47.0033 37.411 47.5556V69.889H33.9666C32.862 69.889 31.9665 68.9935 31.9665 67.889V47.5556C31.9665 47.0033 31.5188 46.5556 30.9665 46.5556H29.2443Z" fill="#47CA64"/>
<path d="M37.42 61.5V62.6667C37.42 63.219 37.8677 63.6667 38.42 63.6667H46.9111C47.4634 63.6667 47.9111 63.219 47.9111 62.6667V62.1111V71.4445V70.8889C47.9111 70.3366 47.4634 69.8889 46.9111 69.8889H37.0222L37.42 61.5Z" fill="#47CA64"/>
</svg>
