<svg width="556" height="112" viewBox="0 0 556 112" fill="none" xmlns="http://www.w3.org/2000/svg">
    <g filter="url(#filter0_i_357_3)">
        <path class="fill" d="M33 109.35C31.3431 109.35 30 108.007 30 106.35V24.15C30 22.4932 28.6569 21.15 27 21.15H3C1.34315 21.15 0 19.8069 0 18.15V4.95C0 3.29315 1.34315 1.95 3 1.95H77.25C78.9069 1.95 80.25 3.29315 80.25 4.95V18.15C80.25 19.8069 78.9069 21.15 77.25 21.15H53.25C51.5932 21.15 50.25 22.4932 50.25 24.15V106.35C50.25 108.007 48.9069 109.35 47.25 109.35H33Z"/>
        <path class="fill" d="M146.998 90.2421C148.541 91.0067 149.134 92.9179 148.177 94.35C144.989 99.1219 140.943 103.072 136.039 106.2C130.339 109.9 123.339 111.75 115.039 111.75C109.439 111.75 104.239 110.8 99.4395 108.9C94.7395 106.9 90.6395 104.15 87.1395 100.65C83.6395 97.15 80.8895 93.05 78.8895 88.35C76.9894 83.55 76.0395 78.3 76.0395 72.6C76.0395 67.3 76.9894 62.3 78.8895 57.6C80.7895 52.8 83.4395 48.65 86.8395 45.15C90.2395 41.55 94.2395 38.7 98.8395 36.6C103.539 34.5 108.689 33.45 114.289 33.45C120.189 33.45 125.439 34.45 130.039 36.45C134.639 38.35 138.489 41.05 141.589 44.55C144.689 47.95 147.039 52 148.639 56.7C150.239 61.4 151.039 66.5 151.039 72C151.039 72.7 151.039 73.3 151.039 73.8C150.939 74.4 150.889 74.95 150.889 75.45C150.71 76.3487 149.996 77.1 149.08 77.1H98.816C97.0016 77.1 95.5816 78.7072 96.0487 80.4604C96.4821 82.0871 97.0623 83.567 97.7895 84.9C99.0895 87 100.639 88.8 102.439 90.3C104.339 91.7 106.389 92.75 108.589 93.45C110.789 94.05 113.039 94.35 115.339 94.35C119.839 94.35 123.539 93.35 126.439 91.35C128.62 89.8238 130.457 88.0335 131.95 85.9792C132.896 84.6784 134.627 84.1135 136.068 84.8274L146.998 90.2421ZM129.83 63.15C130.995 63.15 131.912 62.1492 131.561 61.038C131.338 60.3278 131.03 59.5818 130.639 58.8C129.939 57.2 128.839 55.7 127.339 54.3C125.939 52.9 124.139 51.75 121.939 50.85C119.839 49.95 117.289 49.5 114.289 49.5C110.089 49.5 106.389 50.7 103.189 53.1C100.647 55.0069 98.7042 57.5134 97.3611 60.6197C96.8288 61.851 97.792 63.15 99.1335 63.15H129.83Z"/>
        <path class="fill" d="M163.589 38.85C163.589 37.1931 164.932 35.85 166.589 35.85H179.039C180.696 35.85 182.039 37.1931 182.039 38.85V45.3084C182.039 45.718 182.371 46.05 182.781 46.05C183.062 46.05 183.317 45.8907 183.449 45.6427C184.323 44.0004 185.453 42.4861 186.839 41.1C188.339 39.6 189.989 38.3 191.789 37.2C193.689 36.1 195.689 35.25 197.789 34.65C199.989 34.05 202.139 33.75 204.239 33.75C206.839 33.75 209.039 34 210.839 34.5C212.428 34.9182 213.807 35.4412 214.977 36.0692C215.374 36.2827 215.551 36.7504 215.423 37.1833L210.726 53.1531C210.551 53.7508 209.877 54.0425 209.298 53.8122C208.387 53.4497 207.401 53.1623 206.339 52.95C204.939 52.55 203.189 52.35 201.089 52.35C198.389 52.35 195.939 52.9 193.739 54C191.539 55 189.639 56.45 188.039 58.35C186.539 60.25 185.339 62.5 184.439 65.1C183.639 67.6 183.239 70.35 183.239 73.35V106.35C183.239 108.007 181.896 109.35 180.239 109.35H166.589C164.932 109.35 163.589 108.007 163.589 106.35V38.85Z"/>
        <path class="fill" d="M225.405 4.95001C225.405 3.29315 226.749 1.95 228.405 1.95H242.055C243.712 1.95 245.055 3.29315 245.055 4.95V34.2L243.945 43.9123C243.898 44.3321 244.226 44.7 244.648 44.7C244.9 44.7 245.132 44.5653 245.264 44.3503C247.069 41.4002 249.799 38.8668 253.455 36.75C257.255 34.55 261.955 33.45 267.555 33.45C272.255 33.45 276.705 34.45 280.905 36.45C285.205 38.35 288.955 41.05 292.155 44.55C295.455 47.95 298.055 52.05 299.955 56.85C301.855 61.65 302.805 66.9 302.805 72.6C302.805 78.3 301.855 83.55 299.955 88.35C298.055 93.15 295.455 97.3 292.155 100.8C288.955 104.2 285.205 106.9 280.905 108.9C276.705 110.8 272.255 111.75 267.555 111.75C261.955 111.75 257.255 110.65 253.455 108.45C249.81 106.34 247.085 103.815 245.28 100.876C245.138 100.645 244.888 100.5 244.617 100.5C244.196 100.5 243.855 100.841 243.855 101.262V106.35C243.855 108.007 242.512 109.35 240.855 109.35H228.405C226.749 109.35 225.405 108.007 225.405 106.35V4.95001ZM263.505 93.6C266.105 93.6 268.555 93.1 270.855 92.1C273.255 91.1 275.355 89.7 277.155 87.9C278.955 86.1 280.405 83.9 281.505 81.3C282.605 78.7 283.155 75.8 283.155 72.6C283.155 69.4 282.605 66.5 281.505 63.9C280.405 61.3 278.955 59.1 277.155 57.3C275.355 55.5 273.255 54.1 270.855 53.1C268.555 52.1 266.105 51.6 263.505 51.6C260.905 51.6 258.405 52.1 256.005 53.1C253.705 54 251.655 55.35 249.855 57.15C248.055 58.95 246.605 61.15 245.505 63.75C244.405 66.35 243.855 69.3 243.855 72.6C243.855 75.9 244.405 78.85 245.505 81.45C246.605 84.05 248.055 86.25 249.855 88.05C251.655 89.85 253.705 91.25 256.005 92.25C258.405 93.15 260.905 93.6 263.505 93.6Z"/>
        <path class="fill" d="M325.564 25.2C323.864 25.2 322.214 24.9 320.614 24.3C319.114 23.6 317.764 22.7 316.564 21.6C315.464 20.4 314.564 19.05 313.864 17.55C313.264 16.05 312.964 14.4 312.964 12.6C312.964 10.8 313.264 9.15 313.864 7.65C314.564 6.15 315.464 4.85 316.564 3.75C317.764 2.55 319.114 1.65 320.614 1.05C322.214 0.349998 323.864 0 325.564 0C329.064 0 332.064 1.25 334.564 3.75C337.064 6.15 338.314 9.1 338.314 12.6C338.314 16.1 337.064 19.1 334.564 21.6C332.064 24 329.064 25.2 325.564 25.2ZM318.814 109.35C317.158 109.35 315.814 108.007 315.814 106.35V38.85C315.814 37.1931 317.158 35.85 318.814 35.85H332.464C334.121 35.85 335.464 37.1931 335.464 38.85V106.35C335.464 108.007 334.121 109.35 332.464 109.35H318.814Z"/>
        <path class="fill" d="M404.283 100.521C404.283 100.095 403.938 99.75 403.512 99.75C403.245 99.75 402.998 99.8882 402.854 100.112C400.578 103.643 397.555 106.472 393.783 108.6C389.883 110.7 385.433 111.75 380.433 111.75C371.133 111.75 364.183 108.9 359.583 103.2C355.083 97.5 352.833 89.9 352.833 80.4V38.85C352.833 37.1931 354.176 35.85 355.833 35.85H369.483C371.14 35.85 372.483 37.1931 372.483 38.85V78C372.483 83.3 373.633 87.25 375.933 89.85C378.333 92.35 381.783 93.6 386.283 93.6C388.983 93.6 391.333 93.05 393.333 91.95C395.433 90.75 397.183 89.2 398.583 87.3C400.083 85.3 401.183 83 401.883 80.4C402.683 77.7 403.083 74.85 403.083 71.85V38.85C403.083 37.1931 404.426 35.85 406.083 35.85H419.733C421.39 35.85 422.733 37.1931 422.733 38.85V106.35C422.733 108.007 421.39 109.35 419.733 109.35H407.283C405.626 109.35 404.283 108.007 404.283 106.35V100.521Z"/>
        <path class="fill" d="M439.566 38.85C439.566 37.1931 440.909 35.85 442.566 35.85H455.016C456.672 35.85 458.016 37.1931 458.016 38.85V44.6747C458.016 45.1029 458.363 45.45 458.791 45.45C459.056 45.45 459.301 45.3146 459.447 45.094C461.722 41.6583 464.745 38.877 468.516 36.75C472.516 34.55 476.916 33.45 481.716 33.45C487.316 33.45 492.016 34.75 495.816 37.35C498.424 39.1343 500.513 41.2013 502.085 43.5508C502.987 44.8997 505.143 45.067 506.191 43.8283C508.209 41.4448 510.701 39.3354 513.666 37.5C517.866 34.8 522.966 33.45 528.966 33.45C533.466 33.45 537.366 34.2 540.666 35.7C543.966 37.1 546.666 39.1 548.766 41.7C550.966 44.3 552.616 47.45 553.716 51.15C554.816 54.75 555.366 58.7 555.366 63V106.35C555.366 108.007 554.023 109.35 552.366 109.35H538.716C537.059 109.35 535.716 108.007 535.716 106.35V66.6C535.716 56.6 531.616 51.6 523.416 51.6C520.816 51.6 518.516 52.2 516.516 53.4C514.516 54.5 512.816 56.05 511.416 58.05C510.116 59.95 509.066 62.25 508.266 64.95C507.566 67.65 507.216 70.55 507.216 73.65V106.35C507.216 108.007 505.872 109.35 504.216 109.35H490.566C488.909 109.35 487.566 108.007 487.566 106.35V66.6C487.566 56.6 483.266 51.6 474.666 51.6C472.166 51.6 469.966 52.2 468.066 53.4C466.166 54.5 464.566 56.05 463.266 58.05C461.966 59.95 460.966 62.25 460.266 64.95C459.566 67.65 459.216 70.55 459.216 73.65V106.35C459.216 108.007 457.872 109.35 456.216 109.35H442.566C440.909 109.35 439.566 108.007 439.566 106.35V38.85Z"/>
    </g>
    <defs>
        <filter id="filter0_i_357_3" x="0" y="-9" width="555.366" height="120.75" filterUnits="userSpaceOnUse" color-interpolation-filters="sRGB">
            <feFlood flood-opacity="0" result="BackgroundImageFix"/>
            <feBlend mode="normal" in="SourceGraphic" in2="BackgroundImageFix" result="shape"/>
            <feColorMatrix in="SourceAlpha" type="matrix" values="0 0 0 0 0 0 0 0 0 0 0 0 0 0 0 0 0 0 127 0" result="hardAlpha"/>
            <feOffset dy="-9"/>
            <feGaussianBlur stdDeviation="5.5"/>
            <feComposite in2="hardAlpha" operator="arithmetic" k2="-1" k3="1"/>
            <feColorMatrix type="matrix" values="0 0 0 0 0 0 0 0 0 0 0 0 0 0 0 0 0 0 0.25 0"/>
            <feBlend mode="normal" in2="shape" result="effect1_innerShadow_357_3"/>
        </filter>
    </defs>
</svg>