<svg width="85" height="85" viewBox="0 0 85 85" fill="none" xmlns="http://www.w3.org/2000/svg">
    <g clip-path="url(#clip0_357_6)">
        <path class="fill" d="M38.185 28.3046C39.2895 28.3046 40.185 27.4092 40.185 26.3046V17.8946C40.185 16.79 39.2895 15.8946 38.185 15.8946H2C0.895431 15.8946 0 16.79 0 17.8946V26.3046C0 27.4092 0.895431 28.3046 2 28.3046H11.5633C12.6679 28.3046 13.5633 29.2 13.5633 30.3046V65.6516C13.5633 66.7562 14.4588 67.6516 15.5633 67.6516H24.6216C25.7262 67.6516 26.6216 66.7562 26.6216 65.6516V30.3046C26.6216 29.2 27.5171 28.3046 28.6216 28.3046H38.185ZM82.3151 31.7356C82.6035 21.8806 75.4613 15.9676 65.7215 15.9676H47.2323C46.1277 15.9676 45.2323 16.863 45.2323 17.9676V65.6516C45.2323 66.7562 46.1277 67.6516 47.2323 67.6516H66.0824C77.4092 67.6516 82.9644 62.6146 84.2629 54.2926C84.8847 50.5173 84.1171 44.2648 77.9039 40.6006C77.5532 40.3938 77.5487 39.8621 77.8871 39.6358C80.9601 37.581 82.2486 33.8854 82.3151 31.7356ZM60.2184 36.1886C59.1139 36.1886 58.2184 35.2932 58.2184 34.1886V28.9906C58.2184 27.886 59.1139 26.9906 60.2184 26.9906H65.7215C72.2146 26.9906 71.9982 36.1886 65.7215 36.1886H60.2184ZM60.2184 56.1906C59.1139 56.1906 58.2184 55.2952 58.2184 54.1906V47.6056C58.2184 46.501 59.1139 45.6056 60.2184 45.6056H65.7215C73.3689 45.6056 73.5132 56.1906 65.7215 56.1906H60.2184Z"/>
    </g>
    <defs>
        <clipPath id="clip0_357_6">
        <rect width="84.44" height="84.44" fill="white"/>
        </clipPath>
    </defs>
</svg>