<svg width="80" height="80" viewBox="0 0 80 80" fill="none" xmlns="http://www.w3.org/2000/svg">
<path d="M25.84 31.44C25.84 32.5446 24.9446 33.44 23.84 33.44H20.32C19.2154 33.44 18.32 34.3354 18.32 35.44V53C18.32 54.1046 17.4246 55 16.32 55H13.08C11.9754 55 11.08 54.1046 11.08 53V35.44C11.08 34.3354 10.1846 33.44 9.08 33.44H5.56C4.45543 33.44 3.56 32.5446 3.56 31.44V28.64C3.56 27.5354 4.45543 26.64 5.56 26.64H23.84C24.9446 26.64 25.84 27.5354 25.84 28.64V31.44Z" fill="#47CA64"/>
<path d="M39.125 35.6532C39.2716 35.9464 39.6893 35.9485 39.8388 35.6567L43.881 27.768C44.2232 27.1001 44.9105 26.68 45.6609 26.68H49.3529C50.8793 26.68 51.8431 28.3211 51.0996 29.6542L45.3833 39.903C45.0448 40.5101 45.0456 41.2494 45.3857 41.8557L51.0878 52.0216C51.8356 53.3548 50.8721 55 49.3435 55H45.6586C44.9094 55 44.223 54.5812 43.8802 53.915L39.8385 46.0598C39.6888 45.7688 39.2721 45.7709 39.1253 46.0633L35.192 53.8974C34.8527 54.5733 34.161 55 33.4047 55H29.7018C28.1713 55 27.208 53.3511 27.9596 52.0178L33.6863 41.8594C34.0292 41.2512 34.0301 40.5083 33.6887 39.8993L27.9478 29.658C27.2004 28.3248 28.164 26.68 29.6924 26.68H33.4024C34.1599 26.68 34.8524 27.108 35.1912 27.7856L39.125 35.6532Z" fill="#47CA64"/>
<path d="M75.4884 31.44C75.4884 32.5446 74.593 33.44 73.4884 33.44H69.9684C68.8639 33.44 67.9684 34.3354 67.9684 35.44V53C67.9684 54.1046 67.073 55 65.9684 55H62.7284C61.6239 55 60.7284 54.1046 60.7284 53V35.44C60.7284 34.3354 59.833 33.44 58.7284 33.44H55.2084C54.1039 33.44 53.2084 32.5446 53.2084 31.44V28.64C53.2084 27.5354 54.1039 26.64 55.2084 26.64H73.4884C74.593 26.64 75.4884 27.5354 75.4884 28.64V31.44Z" fill="#47CA64"/>
</svg>
